# Blender v2.80 (sub 75) OBJ File: 'couloir.blend'
# www.blender.org
mtllib corner.mtl
o Floor.003_Plane.007
v -2.000000 0.000000 0.000000
v 0.000000 0.000000 0.000000
v -2.000000 0.000000 -2.000000
v 0.000000 0.000000 -2.000000
vt 0.000000 0.000000
vt 1.000000 0.000000
vt 1.000000 1.000000
vt 0.000000 1.000000
vn 0.0000 1.0000 0.0000
usemtl Material.007
s off
f 1/1/1 2/2/1 4/3/1 3/4/1
o Floor.009_Plane.019
v -4.000000 0.000000 0.000000
v -2.000000 0.000000 0.000000
v -4.000000 0.000000 -2.000000
v -2.000000 0.000000 -2.000000
vt 0.000000 0.000000
vt 1.000000 0.000000
vt 1.000000 1.000000
vt 0.000000 1.000000
vn 0.0000 1.0000 0.0000
usemtl Material.019
s off
f 5/5/2 6/6/2 8/7/2 7/8/2
o Floor.000_Plane.029
v -4.000000 0.000000 2.000000
v -2.000000 0.000000 2.000000
v -4.000000 0.000000 0.000000
v -2.000000 0.000000 0.000000
vt 0.000000 0.000000
vt 1.000000 0.000000
vt 1.000000 1.000000
vt 0.000000 1.000000
vn 0.0000 1.0000 0.0000
usemtl Material.029
s off
f 9/9/3 10/10/3 12/11/3 11/12/3
o Wall2.001_Plane.003
v -2.000000 0.000000 -2.000000
v 0.000000 0.000000 -2.000000
v -2.000000 1.600000 -2.000000
v 0.000000 1.600000 -2.000000
vt 0.000000 0.000000
vt 1.000000 0.000000
vt 1.000000 1.000000
vt 0.000000 1.000000
vn 0.0000 0.0000 1.0000
usemtl Material.000
s off
f 13/13/4 14/14/4 16/15/4 15/16/4
o Wall1.004_Plane.021
v -2.000000 0.000000 -0.000000
v 0.000000 0.000000 -0.000000
v -2.000000 1.600000 0.000000
v 0.000000 1.600000 0.000000
vt 0.000000 0.000000
vt 1.000000 0.000000
vt 1.000000 1.000000
vt 0.000000 1.000000
vn 0.0000 -0.0000 1.0000
usemtl Material.021
s off
f 17/17/5 18/18/5 20/19/5 19/20/5
o Wall1.000_Plane.025
v -2.000000 0.000000 2.000394
v -2.000000 0.000000 0.000394
v -2.000000 1.600000 2.000394
v -2.000000 1.600000 0.000394
vt 0.000000 0.000000
vt 1.000000 0.000000
vt 1.000000 1.000000
vt 0.000000 1.000000
vn 1.0000 0.0000 -0.0000
usemtl Material.025
s off
f 21/21/6 22/22/6 24/23/6 23/24/6
o Wall2.000_Plane.026
v -4.000000 0.000000 -2.000000
v -2.000000 0.000000 -2.000000
v -4.000000 1.600000 -2.000000
v -2.000000 1.600000 -2.000000
vt 0.000000 0.000000
vt 1.000000 0.000000
vt 1.000000 1.000000
vt 0.000000 1.000000
vn 0.0000 0.0000 1.0000
usemtl Material.026
s off
f 25/25/7 26/26/7 28/27/7 27/28/7
o Wall1.001_Plane.027
v -4.000000 0.000000 0.000394
v -4.000000 0.000000 -1.999606
v -4.000000 1.600000 0.000394
v -4.000000 1.600000 -1.999606
vt 0.000000 0.000000
vt 1.000000 0.000000
vt 1.000000 1.000000
vt 0.000000 1.000000
vn 1.0000 0.0000 0.0000
usemtl Material.027
s off
f 29/29/8 30/30/8 32/31/8 31/32/8
o Wall1.002_Plane.028
v -4.000000 0.000000 2.000394
v -4.000000 0.000000 0.000394
v -4.000000 1.600000 2.000394
v -4.000000 1.600000 0.000394
vt 0.000000 0.000000
vt 1.000000 0.000000
vt 1.000000 1.000000
vt 0.000000 1.000000
vn 1.0000 0.0000 0.0000
usemtl Material.028
s off
f 33/33/9 34/34/9 36/35/9 35/36/9
