# Blender v2.79 (sub 0) OBJ File: ''
# www.blender.org
mtllib untitled.mtl
o Wall1.000_Plane.025
v -1.000000 -0.000000 1.000000
v -1.000000 0.000000 -1.000000
v -1.000000 1.600000 -1.000000
v -1.000000 1.600000 1.000000
vt 0.000000 0.000000
vt 1.000000 0.000000
vt 1.000000 1.000000
vt 0.000000 1.000000
vn 1.0000 0.0000 0.0000
usemtl Material.025
s 1
f 1/1/1 2/2/1 3/3/1 4/4/1
o Wall1.002_Plane.028
v 1.000000 -0.000000 -1.000000
v 1.000000 0.000000 -3.000000
v 1.000000 1.600000 -3.000000
v 1.000000 1.600000 -1.000000
vt 0.000000 0.000000
vt 1.000000 0.000000
vt 1.000000 1.000000
vt 0.000000 1.000000
vn 1.0000 0.0000 0.0000
usemtl Material.028
s 1
f 5/5/2 6/6/2 7/7/2 8/8/2
o Wall2.000_Plane.026
v 1.000000 0.000000 1.000000
v 3.000000 0.000000 1.000000
v 3.000000 1.600000 1.000000
v 1.000000 1.600000 1.000000
vt 0.000000 0.000000
vt 1.000000 0.000000
vt 1.000000 1.000000
vt 0.000000 1.000000
vn 0.0000 -0.0000 1.0000
usemtl Material.026
s 1
f 9/9/3 10/10/3 11/11/3 12/12/3
o Floor.003_Plane.007
v -1.000000 0.000000 1.000000
v 1.000000 0.000000 1.000000
v 1.000000 0.000000 -1.000000
v -1.000000 0.000000 -1.000000
vt 0.000000 0.000000
vt 1.000000 0.000000
vt 1.000000 1.000000
vt 0.000000 1.000000
vn 0.0000 1.0000 0.0000
usemtl Material.007
s 1
f 13/13/4 14/14/4 15/15/4 16/16/4
o Floor.000_Plane.029
v 1.000000 -0.000000 1.000000
v 3.000000 -0.000000 1.000000
v 3.000000 0.000000 -1.000000
v 1.000000 0.000000 -1.000000
vt 0.000000 0.000000
vt 1.000000 0.000000
vt 1.000000 1.000000
vt 0.000000 1.000000
vn 0.0000 1.0000 0.0000
usemtl Material.029
s 1
f 17/17/5 18/18/5 19/19/5 20/20/5
o Floor.009_Plane.019
v -1.000000 0.000000 -1.000000
v 1.000000 0.000000 -1.000000
v 1.000000 0.000000 -3.000000
v -1.000000 0.000000 -3.000000
vt 0.000000 0.000000
vt 1.000000 0.000000
vt 1.000000 1.000000
vt 0.000000 1.000000
vn 0.0000 1.0000 0.0000
usemtl Material.019
s 1
f 21/21/6 22/22/6 23/23/6 24/24/6
o Wall1.001_Plane.027
v -1.000000 0.000000 -1.000000
v -1.000000 0.000000 -3.000000
v -1.000000 1.600000 -3.000000
v -1.000000 1.600000 -1.000000
vt 0.000000 0.000000
vt 1.000000 0.000000
vt 1.000000 1.000000
vt 0.000000 1.000000
vn 1.0000 0.0000 0.0000
usemtl Material.027
s 1
f 25/25/7 26/26/7 27/27/7 28/28/7
o Wall2.001_Plane.003
v 1.000000 0.000000 -1.000000
v 3.000000 0.000000 -1.000000
v 3.000000 1.600000 -1.000000
v 1.000000 1.600000 -1.000000
vt 0.000000 0.000000
vt 1.000000 0.000000
vt 1.000000 1.000000
vt 0.000000 1.000000
vn 0.0000 -0.0000 1.0000
usemtl Material.000
s 1
f 29/29/8 30/30/8 31/31/8 32/32/8
o Wall1.004_Plane.021
v -1.000000 0.000000 1.000000
v 1.000000 0.000000 1.000000
v 1.000000 1.600000 1.000000
v -1.000000 1.600000 1.000000
vt 0.000000 0.000000
vt 1.000000 0.000000
vt 1.000000 1.000000
vt 0.000000 1.000000
vn 0.0000 -0.0000 1.0000
usemtl Material.021
s 1
f 33/33/9 34/34/9 35/35/9 36/36/9
