# Blender v2.80 (sub 75) OBJ File: 'couloir.blend'
# www.blender.org
mtllib couloir.mtl
o Wall1_Plane
v -1.000000 0.000000 -0.000000
v 1.000000 0.000000 -0.000000
v -1.000000 1.600000 0.000000
v 1.000000 1.600000 0.000000
vt 0.000000 0.000000
vt 1.000000 0.000000
vt 1.000000 1.000000
vt 0.000000 1.000000
vn 0.0000 -0.0000 1.0000
usemtl Material.002
s off
f 1/1/1 2/2/1 4/3/1 3/4/1
o Wall2_Plane.001
v -1.000000 0.000000 -2.000000
v 1.000000 0.000000 -2.000000
v -1.000000 1.600000 -2.000000
v 1.000000 1.600000 -2.000000
vt 0.000000 0.000000
vt 1.000000 0.000000
vt 1.000000 1.000000
vt 0.000000 1.000000
vn 0.0000 0.0000 1.0000
usemtl Material.003
s off
f 5/5/2 6/6/2 8/7/2 7/8/2
o Floor_Plane.002
v -1.000000 0.000000 0.000000
v 1.000000 0.000000 0.000000
v -1.000000 0.000000 -2.000000
v 1.000000 0.000000 -2.000000
vt 0.000000 0.000000
vt 1.000000 0.000000
vt 1.000000 1.000000
vt 0.000000 1.000000
vn 0.0000 1.0000 0.0000
usemtl Material.005
s off
f 9/9/3 10/10/3 12/11/3 11/12/3
